<?xml version="1.0" encoding="utf-8"?>
<!-- Generator: Adobe Illustrator 21.0.2, SVG Export Plug-In . SVG Version: 6.00 Build 0)  -->
<svg version="1.1" id="Layer_1" xmlns="http://www.w3.org/2000/svg" xmlns:xlink="http://www.w3.org/1999/xlink" x="0px" y="0px"
	 viewBox="0 0 605.8 621.1" style="enable-background:new 0 0 605.8 621.1;" xml:space="preserve">
<g>
	<g>
		<path d="M251.6,59.8h-10.8h-2.4c-10.3,0-37.3,1.8-50.3,7.1c-11.5,4.7-21.6,11.4-30.1,19.8c-8.5,8.5-15.3,18.6-20,30.1
			c-4.7,11.5-7.1,24.2-7.1,37.8v88c0,6.7-1.1,12.7-3.2,18c-2.1,5.2-5,9.8-8.5,13.5c-3.6,3.7-7.8,6.6-12.9,8.7
			c-3.6,1.5-18.3,3.2-28.7,3.7h-7.6H59.1v10.8v26.2v10.8h10.8h5.2c9.3,0,25.7,1.6,29.9,3.2c5.4,2.1,9.9,4.9,13.7,8.7
			c3.8,3.7,6.7,8.2,8.8,13.6c2.2,5.4,3.3,11.6,3.3,18.5v88c0,13.6,2.4,26.3,7.1,37.8c4.7,11.5,11.5,21.6,20,30.1
			c8.5,8.4,18.6,15.1,30.1,19.8c13,5.3,40,7.1,50.3,7.1h2.4h10.8v-10.8v-26.4v-10.8h-10.8h-2.4c-9.6,0-26.9-1.6-30.9-3.2
			c-5.3-2.1-9.8-4.9-13.6-8.7c-3.8-3.7-6.7-8.2-8.8-13.5c-2.2-5.4-3.3-11.6-3.3-18.2V381c0-17.2-3.9-32.8-11.5-46.6
			c-5.1-9.1-11.3-17.1-18.7-23.9c7.4-6.7,13.7-14.7,18.7-24c7.6-13.9,11.4-29.7,11.4-46.8v-88.2c0-6.7,1.1-12.8,3.3-18.2
			c2.2-5.4,5-9.8,8.8-13.5c3.8-3.8,8.3-6.6,13.6-8.7c4-1.6,21.4-3.2,30.9-3.2h2.4h10.8V97V70.6V59.8L251.6,59.8z"/>
	</g>
	<path d="M537.2,257.2c-6.4,14.8-15.1,27.7-26.2,38.8c-11.1,11.1-24.1,19.8-39,26.2c-14.9,6.4-30.8,9.5-47.7,9.5h-53.5v226.4h-44.7
		v-497h98.3c16.9,0,32.7,3.2,47.7,9.5c14.9,6.4,27.9,15.1,39,26.2c11.1,11.1,19.8,24.1,26.2,39c6.4,14.9,9.5,30.8,9.5,47.7v26.2
		C546.7,226.5,543.5,242.4,537.2,257.2z M498.7,188.7c0-10.7-2-20.7-6-29.9c-4-9.2-9.5-17.4-16.6-24.4c-7-7-15.2-12.5-24.4-16.6
		c-9.2-4-19.2-6-29.9-6h-47.6v165.8h47.6c10.7,0,20.7-2,29.9-6c9.2-4,17.4-9.5,24.4-16.4c7-6.9,12.5-15,16.6-24.2
		c4-9.2,6-19.2,6-29.9V188.7z"/>
</g>
</svg>
