<?xml version="1.0" standalone="no"?>
<!DOCTYPE svg PUBLIC "-//W3C//DTD SVG 20010904//EN"
 "http://www.w3.org/TR/2001/REC-SVG-20010904/DTD/svg10.dtd">
<svg version="1.0" xmlns="http://www.w3.org/2000/svg"
 width="16.000000pt" height="16.000000pt" viewBox="0 0 16.000000 16.000000"
 preserveAspectRatio="xMidYMid meet">
<metadata>
Created by potrace 1.11, written by Peter Selinger 2001-2013
</metadata>
<g transform="translate(0.000000,16.000000) scale(0.002576,-0.002576)"
fill="#000000" stroke="none">
<path d="M2396 5613 c-1 -1 -38 -5 -83 -8 -45 -3 -96 -8 -115 -11 -18 -2 -49
-7 -68 -9 -19 -3 -46 -8 -60 -11 -14 -3 -36 -8 -49 -11 -61 -11 -185 -74 -271
-136 -114 -83 -230 -230 -294 -370 -24 -53 -65 -218 -71 -286 -2 -31 -5 -276
-5 -546 -1 -269 -6 -512 -11 -540 -14 -75 -60 -165 -110 -216 -61 -61 -108
-85 -206 -103 -53 -10 -177 -19 -278 -20 l-110 -1 0 -238 0 -239 145 -4 c219
-5 275 -13 350 -47 81 -38 168 -142 196 -237 4 -14 10 -32 12 -40 3 -8 6 -247
8 -530 2 -283 4 -515 4 -515 0 0 3 -29 6 -63 12 -160 85 -344 190 -478 61 -79
167 -173 234 -210 19 -10 42 -24 50 -30 56 -42 237 -90 371 -98 26 -2 50 -5
55 -8 5 -2 74 -4 154 -4 l145 1 0 238 0 237 -115 1 c-116 1 -129 2 -230 13
-79 9 -148 34 -179 64 -8 7 -25 21 -38 29 -54 36 -118 160 -129 252 -3 27 -7
285 -8 573 -2 287 -5 532 -8 543 -3 11 -8 37 -12 58 -18 99 -102 292 -148 339
-10 10 -18 21 -18 26 0 4 -25 33 -55 66 -30 32 -55 60 -55 62 0 3 19 24 43 47
23 24 55 63 72 87 16 25 32 47 35 50 11 10 91 170 85 170 -3 0 -1 9 5 21 14
25 17 39 39 154 15 79 18 156 17 585 -1 272 2 515 7 540 4 25 10 58 13 74 6
38 40 102 77 150 37 47 133 111 179 120 18 3 44 8 58 11 23 5 216 16 320 19
l45 1 0 234 c0 186 -2 234 -13 239 -13 4 -171 9 -176 5z"/>
<path d="M3337 5593 c-3 -4 -5 -1123 -5 -2485 l0 -2477 215 -3 c126 -2 218 1
224 7 5 5 9 439 9 1135 l0 1125 313 0 c171 -1 337 3 367 7 60 8 105 16 105 18
0 1 16 3 35 6 19 2 42 7 50 11 8 3 20 7 25 9 6 1 34 12 63 22 28 11 52 17 52
14 0 -4 4 -2 8 3 4 6 30 21 57 33 95 45 242 151 328 238 48 48 87 90 87 94 0
4 12 20 26 36 29 34 98 147 132 219 27 55 73 185 67 185 -3 0 0 12 6 28 6 15
13 41 15 57 2 17 6 43 10 58 18 82 18 564 0 642 -2 11 -9 43 -15 70 -31 139
-101 296 -190 430 -123 185 -366 371 -596 456 -41 15 -165 46 -217 55 -61 10
-1165 17 -1171 7z m1025 -507 c91 -7 223 -44 269 -77 14 -10 28 -17 30 -14 4
4 77 -48 140 -100 48 -39 167 -193 174 -225 0 -3 8 -18 17 -35 47 -91 63 -184
63 -375 0 -151 -6 -211 -25 -270 -19 -56 -21 -65 -21 -70 -1 -16 -79 -144
-119 -195 -49 -61 -64 -76 -135 -131 -93 -72 -237 -135 -347 -150 -61 -8 -575
-12 -587 -4 -4 3 -8 374 -7 825 l0 820 30 5 c42 7 410 4 518 -4z"/>
</g>
</svg>
